<?xml version="1.0" encoding="UTF-8" standalone="no"?>
<!DOCTYPE svg PUBLIC "-//W3C//DTD SVG 1.1//EN" "http://www.w3.org/Graphics/SVG/1.1/DTD/svg11.dtd">
<svg width="100%" height="100%" viewBox="0 0 473 473" version="1.1" xmlns="http://www.w3.org/2000/svg" xmlns:xlink="http://www.w3.org/1999/xlink" xml:space="preserve" xmlns:serif="http://www.serif.com/" style="fill-rule:evenodd;clip-rule:evenodd;stroke-linejoin:round;stroke-miterlimit:2;">
    <g transform="matrix(1,0,0,1,-721.426,0)">
        <g id="_-2" serif:id="#2" transform="matrix(0.727273,0,0,0.454545,721.426,0)">
            <rect x="0" y="0" width="649.606" height="1039.37" style="fill:none;"/>
            <clipPath id="_clip1">
                <rect x="0" y="0" width="649.606" height="1039.37"/>
            </clipPath>
            <g clip-path="url(#_clip1)">
                <g id="LOGO" transform="matrix(1.375,0,0,2.2,-64.9606,-103.937)">
                    <g transform="matrix(1,0,0,1,23.622,0)">
                        <path d="M212.598,47.244L23.622,47.244C23.622,47.244 57.516,81.138 84.704,108.326C93.564,117.186 105.58,122.163 118.11,122.163C130.64,122.163 142.657,117.186 151.517,108.326C178.705,81.138 212.598,47.244 212.598,47.244Z" style="fill:rgb(64,191,191);"/>
                    </g>
                    <path d="M47.244,259.843L94.488,307.087L94.488,519.685L47.244,519.685L47.244,259.843Z" style="fill:rgb(64,191,191);"/>
                    <g transform="matrix(1,0,0,1,47.2441,0)">
                        <path d="M165.354,212.598L165.354,307.087L425.197,47.244L330.709,47.244L165.354,212.598Z" style="fill:rgb(64,191,191);"/>
                    </g>
                    <g transform="matrix(1,0,0,1,70.8661,5.68434e-14)">
                        <path d="M151.517,439.034C142.657,447.894 137.679,459.911 137.679,472.441C137.679,484.971 142.657,496.988 151.517,505.848C159.295,513.626 165.354,519.685 165.354,519.685C165.354,519.685 231.778,453.261 273.68,411.359C282.54,402.499 287.517,390.483 287.517,377.953C287.517,365.423 282.54,353.406 273.68,344.546C265.902,336.768 259.843,330.709 259.843,330.709C259.843,330.709 193.419,397.132 151.517,439.034Z" style="fill:rgb(64,191,191);"/>
                    </g>
                    <path d="M519.685,141.732C519.685,141.732 469.906,191.511 434.981,226.436C416.531,244.886 416.531,274.799 434.981,293.249C435.375,293.643 435.771,294.039 436.168,294.436C458.318,316.586 470.762,346.628 470.762,377.953C470.762,409.278 458.318,439.319 436.168,461.469C405.418,492.219 377.953,519.685 377.953,519.685L519.685,519.685L519.685,141.732Z" style="fill:rgb(64,191,191);"/>
                </g>
            </g>
        </g>
    </g>
</svg>
